# MagicaVoxel @ Ephtracy

# group
o 

# material
mtllib yadon.mtl
usemtl palette

# normals
vn -1 0 0
vn 1 0 0
vn 0 0 1
vn 0 0 -1
vn 0 -1 0
vn 0 1 0

# texcoords
vt 0.376953 0.5
vt 0.380859 0.5
vt 0.384766 0.5
vt 0.388672 0.5
vt 0.392578 0.5
vt 0.396484 0.5
vt 0.958984 0.5
vt 0.994141 0.5

# verts
v 0 1 -0.2
v 0 1 -0.3
v 0 1 -0.5
v 0 1 -0.9
v 0 1 -1
v 0 1 -1.2
v 0 1.1 -0.2
v 0 1.1 -0.3
v 0 1.1 -0.9
v 0 1.1 -1
v 0 1.2 -0.3
v 0 1.2 -0.5
v 0 1.2 -1
v 0 1.2 -1.2
v 0 1.7 0
v 0 1.7 -0.2
v 0 1.9 0
v 0 1.9 -0.2
v 0.1 1.1 0
v 0.1 1.1 -0.1
v 0.1 1.1 -0.2
v 0.1 1.1 -0.3
v 0.1 1.1 -0.5
v 0.1 1.1 -0.9
v 0.1 1.1 -1
v 0.1 1.1 -1.2
v 0.1 1.1 -1.3
v 0.1 1.2 0
v 0.1 1.2 -0.1
v 0.1 1.2 -0.2
v 0.1 1.2 -0.3
v 0.1 1.2 -0.5
v 0.1 1.2 -1
v 0.1 1.2 -1.2
v 0.1 1.3 0
v 0.1 1.3 -0.1
v 0.1 1.3 -0.2
v 0.1 1.6 0
v 0.1 1.6 -0.1
v 0.1 1.7 0
v 0.1 1.7 -0.2
v 0.1 1.7 -1.3
v 0.2 1 0
v 0.2 1 -0.1
v 0.2 1 -0.2
v 0.2 1 -0.5
v 0.2 1 -1
v 0.2 1 -1.2
v 0.2 1 -1.3
v 0.2 1.1 0
v 0.2 1.1 -0.1
v 0.2 1.1 -0.2
v 0.2 1.1 -0.5
v 0.2 1.1 -1
v 0.2 1.1 -1.2
v 0.2 1.1 -1.3
v 0.2 1.1 -1.4
v 0.2 1.7 -0.2
v 0.2 1.7 -1.3
v 0.2 1.7 -1.4
v 0.2 1.8 -0.2
v 0.2 1.8 -1.3
v 0.4 1.3 -1.4
v 0.4 1.3 -1.6
v 0.4 1.4 -1.6
v 0.4 1.4 -1.7
v 0.4 1.5 -1.4
v 0.4 1.5 -1.6
v 0.4 1.5 -1.7
v 0.4 1.5 -1.8
v 0.4 1.6 -1.6
v 0.4 1.6 -1.7
v 0.4 1.8 -1.6
v 0.4 1.8 -1.7
v 0.4 1.9 -1.5
v 0.4 1.9 -1.6
v 0.4 1.9 -1.7
v 0.4 1.9 -1.8
v 0.4 2 -1.4
v 0.4 2 -1.5
v 0.4 2 -1.6
v 0.4 2 -1.7
v 0.4 2.1 -1.4
v 0.4 2.1 -1.6
v 0.7 1.8 0
v 0.7 1.8 -0.2
v 0.7 1.9 0
v 0.7 1.9 -0.2
v 0.9 1 -0.9
v 0.9 1 -1
v 0.9 1.1 -0.9
v 0.9 1.1 -1
v 0.1 1 -0.9
v 0.1 1 -1
v 0.1 1.1 -0.9
v 0.1 1.1 -1
v 0.3 1.8 0
v 0.3 1.8 -0.2
v 0.3 1.9 0
v 0.3 1.9 -0.2
v 0.6 1.3 -1.4
v 0.6 1.3 -1.6
v 0.6 1.4 -1.6
v 0.6 1.4 -1.7
v 0.6 1.5 -1.4
v 0.6 1.5 -1.6
v 0.6 1.5 -1.7
v 0.6 1.5 -1.8
v 0.6 1.6 -1.6
v 0.6 1.6 -1.7
v 0.6 1.8 -1.6
v 0.6 1.8 -1.7
v 0.6 1.9 -1.5
v 0.6 1.9 -1.6
v 0.6 1.9 -1.7
v 0.6 1.9 -1.8
v 0.6 2 -1.4
v 0.6 2 -1.5
v 0.6 2 -1.6
v 0.6 2 -1.7
v 0.6 2.1 -1.4
v 0.6 2.1 -1.6
v 0.8 1 0
v 0.8 1 -0.1
v 0.8 1 -0.2
v 0.8 1 -0.5
v 0.8 1 -1
v 0.8 1 -1.2
v 0.8 1 -1.3
v 0.8 1.1 0
v 0.8 1.1 -0.1
v 0.8 1.1 -0.2
v 0.8 1.1 -0.5
v 0.8 1.1 -1
v 0.8 1.1 -1.2
v 0.8 1.1 -1.3
v 0.8 1.1 -1.4
v 0.8 1.7 -0.2
v 0.8 1.7 -1.3
v 0.8 1.7 -1.4
v 0.8 1.8 -0.2
v 0.8 1.8 -1.3
v 0.9 1.1 0
v 0.9 1.1 -0.1
v 0.9 1.1 -0.2
v 0.9 1.1 -0.3
v 0.9 1.1 -0.5
v 0.9 1.1 -0.9
v 0.9 1.1 -1
v 0.9 1.1 -1.2
v 0.9 1.1 -1.3
v 0.9 1.2 0
v 0.9 1.2 -0.1
v 0.9 1.2 -0.2
v 0.9 1.2 -0.3
v 0.9 1.2 -0.5
v 0.9 1.2 -1
v 0.9 1.2 -1.2
v 0.9 1.3 0
v 0.9 1.3 -0.1
v 0.9 1.3 -0.2
v 0.9 1.6 0
v 0.9 1.6 -0.1
v 0.9 1.7 0
v 0.9 1.7 -0.2
v 0.9 1.7 -1.3
v 1 1 -0.2
v 1 1 -0.3
v 1 1 -0.5
v 1 1 -0.9
v 1 1 -1
v 1 1 -1.2
v 1 1.1 -0.2
v 1 1.1 -0.3
v 1 1.1 -0.9
v 1 1.1 -1
v 1 1.2 -0.3
v 1 1.2 -0.5
v 1 1.2 -1
v 1 1.2 -1.2
v 1 1.7 0
v 1 1.7 -0.2
v 1 1.9 0
v 1 1.9 -0.2
v 0 1.7 0
v 0 1.9 0
v 0.1 1.1 0
v 0.1 1.2 0
v 0.1 1.3 0
v 0.1 1.6 0
v 0.1 1.7 0
v 0.2 1 0
v 0.2 1.1 0
v 0.2 1.2 0
v 0.2 1.4 0
v 0.2 1.5 0
v 0.2 1.7 0
v 0.2 1.8 0
v 0.3 1 0
v 0.3 1.1 0
v 0.3 1.2 0
v 0.3 1.3 0
v 0.3 1.4 0
v 0.3 1.5 0
v 0.3 1.6 0
v 0.3 1.7 0
v 0.3 1.8 0
v 0.3 1.9 0
v 0.4 1.1 0
v 0.4 1.2 0
v 0.4 1.3 0
v 0.4 1.4 0
v 0.4 1.6 0
v 0.6 1.1 0
v 0.6 1.2 0
v 0.6 1.3 0
v 0.6 1.4 0
v 0.6 1.6 0
v 0.7 1 0
v 0.7 1.1 0
v 0.7 1.2 0
v 0.7 1.3 0
v 0.7 1.4 0
v 0.7 1.5 0
v 0.7 1.6 0
v 0.7 1.7 0
v 0.7 1.8 0
v 0.7 1.9 0
v 0.8 1 0
v 0.8 1.1 0
v 0.8 1.2 0
v 0.8 1.4 0
v 0.8 1.5 0
v 0.8 1.7 0
v 0.8 1.8 0
v 0.9 1.1 0
v 0.9 1.2 0
v 0.9 1.3 0
v 0.9 1.6 0
v 0.9 1.7 0
v 1 1.7 0
v 1 1.9 0
v 0 1 -0.2
v 0 1.1 -0.2
v 0.1 1 -0.2
v 0.1 1.1 -0.2
v 0.2 1 -0.2
v 0.2 1.1 -0.2
v 0.8 1 -0.2
v 0.8 1.1 -0.2
v 0.9 1 -0.2
v 0.9 1.1 -0.2
v 1 1 -0.2
v 1 1.1 -0.2
v 0 1.1 -0.3
v 0 1.2 -0.3
v 0.1 1.1 -0.3
v 0.1 1.2 -0.3
v 0.9 1.1 -0.3
v 0.9 1.2 -0.3
v 1 1.1 -0.3
v 1 1.2 -0.3
v 0 1 -0.9
v 0 1.1 -0.9
v 0.1 1 -0.9
v 0.1 1.1 -0.9
v 0.9 1 -0.9
v 0.9 1.1 -0.9
v 1 1 -0.9
v 1 1.1 -0.9
v 0 1.1 -1
v 0 1.2 -1
v 0.1 1 -1
v 0.1 1.1 -1
v 0.1 1.2 -1
v 0.2 1 -1
v 0.2 1.1 -1
v 0.8 1 -1
v 0.8 1.1 -1
v 0.9 1 -1
v 0.9 1.1 -1
v 0.9 1.2 -1
v 1 1.1 -1
v 1 1.2 -1
v 0.4 2 -1.4
v 0.4 2.1 -1.4
v 0.6 2 -1.4
v 0.6 2.1 -1.4
v 0.4 1.9 -1.5
v 0.4 2 -1.5
v 0.6 1.9 -1.5
v 0.6 2 -1.5
v 0.4 1.5 -1.6
v 0.4 1.6 -1.6
v 0.4 1.8 -1.6
v 0.4 1.9 -1.6
v 0.6 1.5 -1.6
v 0.6 1.6 -1.6
v 0.6 1.8 -1.6
v 0.6 1.9 -1.6
v 0.4 1.6 -1.7
v 0.4 1.8 -1.7
v 0.6 1.6 -1.7
v 0.6 1.8 -1.7
v 0 1.7 -0.2
v 0 1.9 -0.2
v 0.1 1.7 -0.2
v 0.2 1.7 -0.2
v 0.2 1.8 -0.2
v 0.3 1.8 -0.2
v 0.3 1.9 -0.2
v 0.7 1.8 -0.2
v 0.7 1.9 -0.2
v 0.8 1.7 -0.2
v 0.8 1.8 -0.2
v 0.9 1.7 -0.2
v 1 1.7 -0.2
v 1 1.9 -0.2
v 0 1 -0.5
v 0 1.2 -0.5
v 0.1 1.1 -0.5
v 0.1 1.2 -0.5
v 0.2 1 -0.5
v 0.2 1.1 -0.5
v 0.8 1 -0.5
v 0.8 1.1 -0.5
v 0.9 1.1 -0.5
v 0.9 1.2 -0.5
v 1 1 -0.5
v 1 1.2 -0.5
v 0 1 -1.2
v 0 1.2 -1.2
v 0.1 1.1 -1.2
v 0.1 1.2 -1.2
v 0.2 1 -1.2
v 0.2 1.1 -1.2
v 0.8 1 -1.2
v 0.8 1.1 -1.2
v 0.9 1.1 -1.2
v 0.9 1.2 -1.2
v 1 1 -1.2
v 1 1.2 -1.2
v 0.1 1.1 -1.3
v 0.1 1.7 -1.3
v 0.2 1 -1.3
v 0.2 1.1 -1.3
v 0.2 1.7 -1.3
v 0.2 1.8 -1.3
v 0.8 1 -1.3
v 0.8 1.1 -1.3
v 0.8 1.7 -1.3
v 0.8 1.8 -1.3
v 0.9 1.1 -1.3
v 0.9 1.7 -1.3
v 0.2 1.1 -1.4
v 0.2 1.7 -1.4
v 0.4 1.3 -1.4
v 0.4 1.5 -1.4
v 0.6 1.3 -1.4
v 0.6 1.5 -1.4
v 0.8 1.1 -1.4
v 0.8 1.7 -1.4
v 0.4 1.3 -1.6
v 0.4 1.4 -1.6
v 0.4 2 -1.6
v 0.4 2.1 -1.6
v 0.6 1.3 -1.6
v 0.6 1.4 -1.6
v 0.6 2 -1.6
v 0.6 2.1 -1.6
v 0.4 1.4 -1.7
v 0.4 1.5 -1.7
v 0.4 1.9 -1.7
v 0.4 2 -1.7
v 0.6 1.4 -1.7
v 0.6 1.5 -1.7
v 0.6 1.9 -1.7
v 0.6 2 -1.7
v 0.4 1.5 -1.8
v 0.4 1.9 -1.8
v 0.6 1.5 -1.8
v 0.6 1.9 -1.8
v 0.2 1 0
v 0.3 1 0
v 0.7 1 0
v 0.8 1 0
v 0.2 1 -0.1
v 0.3 1 -0.1
v 0.7 1 -0.1
v 0.8 1 -0.1
v 0 1 -0.2
v 0.1 1 -0.2
v 0.2 1 -0.2
v 0.8 1 -0.2
v 0.9 1 -0.2
v 1 1 -0.2
v 0 1 -0.3
v 0.1 1 -0.3
v 0.9 1 -0.3
v 1 1 -0.3
v 0 1 -0.5
v 0.2 1 -0.5
v 0.8 1 -0.5
v 1 1 -0.5
v 0 1 -0.9
v 0.1 1 -0.9
v 0.9 1 -0.9
v 1 1 -0.9
v 0 1 -1
v 0.1 1 -1
v 0.2 1 -1
v 0.8 1 -1
v 0.9 1 -1
v 1 1 -1
v 0 1 -1.2
v 0.2 1 -1.2
v 0.8 1 -1.2
v 1 1 -1.2
v 0.2 1 -1.3
v 0.8 1 -1.3
v 0.1 1.1 0
v 0.2 1.1 0
v 0.8 1.1 0
v 0.9 1.1 0
v 0.1 1.1 -0.1
v 0.2 1.1 -0.1
v 0.8 1.1 -0.1
v 0.9 1.1 -0.1
v 0.1 1.1 -0.2
v 0.2 1.1 -0.2
v 0.8 1.1 -0.2
v 0.9 1.1 -0.2
v 0.1 1.1 -0.5
v 0.2 1.1 -0.5
v 0.8 1.1 -0.5
v 0.9 1.1 -0.5
v 0.1 1.1 -0.9
v 0.9 1.1 -0.9
v 0.1 1.1 -1
v 0.2 1.1 -1
v 0.8 1.1 -1
v 0.9 1.1 -1
v 0.1 1.1 -1.2
v 0.2 1.1 -1.2
v 0.8 1.1 -1.2
v 0.9 1.1 -1.2
v 0.1 1.1 -1.3
v 0.2 1.1 -1.3
v 0.8 1.1 -1.3
v 0.9 1.1 -1.3
v 0.2 1.1 -1.4
v 0.8 1.1 -1.4
v 0.4 1.3 -1.4
v 0.6 1.3 -1.4
v 0.4 1.3 -1.6
v 0.6 1.3 -1.6
v 0.4 1.4 -1.6
v 0.6 1.4 -1.6
v 0.4 1.4 -1.7
v 0.6 1.4 -1.7
v 0.4 1.5 -1.7
v 0.6 1.5 -1.7
v 0.4 1.5 -1.8
v 0.6 1.5 -1.8
v 0 1.7 0
v 0.1 1.7 0
v 0.9 1.7 0
v 1 1.7 0
v 0 1.7 -0.2
v 0.1 1.7 -0.2
v 0.9 1.7 -0.2
v 1 1.7 -0.2
v 0.4 1.8 -1.6
v 0.6 1.8 -1.6
v 0.4 1.8 -1.7
v 0.6 1.8 -1.7
v 0.4 1.9 -1.5
v 0.6 1.9 -1.5
v 0.4 1.9 -1.6
v 0.6 1.9 -1.6
v 0.4 2 -1.4
v 0.6 2 -1.4
v 0.4 2 -1.5
v 0.6 2 -1.5
v 0 1.1 -0.2
v 0.1 1.1 -0.2
v 0.9 1.1 -0.2
v 1 1.1 -0.2
v 0 1.1 -0.3
v 0.1 1.1 -0.3
v 0.9 1.1 -0.3
v 1 1.1 -0.3
v 0 1.1 -0.9
v 0.1 1.1 -0.9
v 0.9 1.1 -0.9
v 1 1.1 -0.9
v 0 1.1 -1
v 0.1 1.1 -1
v 0.9 1.1 -1
v 1 1.1 -1
v 0 1.2 -0.3
v 0.1 1.2 -0.3
v 0.9 1.2 -0.3
v 1 1.2 -0.3
v 0 1.2 -0.5
v 0.1 1.2 -0.5
v 0.9 1.2 -0.5
v 1 1.2 -0.5
v 0 1.2 -1
v 0.1 1.2 -1
v 0.9 1.2 -1
v 1 1.2 -1
v 0 1.2 -1.2
v 0.1 1.2 -1.2
v 0.9 1.2 -1.2
v 1 1.2 -1.2
v 0.4 1.5 -1.4
v 0.6 1.5 -1.4
v 0.4 1.5 -1.6
v 0.6 1.5 -1.6
v 0.4 1.6 -1.6
v 0.6 1.6 -1.6
v 0.4 1.6 -1.7
v 0.6 1.6 -1.7
v 0.1 1.7 -0.2
v 0.2 1.7 -0.2
v 0.8 1.7 -0.2
v 0.9 1.7 -0.2
v 0.1 1.7 -1.3
v 0.2 1.7 -1.3
v 0.8 1.7 -1.3
v 0.9 1.7 -1.3
v 0.2 1.7 -1.4
v 0.8 1.7 -1.4
v 0.3 1.8 0
v 0.7 1.8 0
v 0.2 1.8 -0.2
v 0.3 1.8 -0.2
v 0.7 1.8 -0.2
v 0.8 1.8 -0.2
v 0.2 1.8 -1.3
v 0.8 1.8 -1.3
v 0 1.9 0
v 0.3 1.9 0
v 0.7 1.9 0
v 1 1.9 0
v 0 1.9 -0.2
v 0.3 1.9 -0.2
v 0.7 1.9 -0.2
v 1 1.9 -0.2
v 0.4 1.9 -1.7
v 0.6 1.9 -1.7
v 0.4 1.9 -1.8
v 0.6 1.9 -1.8
v 0.4 2 -1.6
v 0.6 2 -1.6
v 0.4 2 -1.7
v 0.6 2 -1.7
v 0.4 2.1 -1.4
v 0.6 2.1 -1.4
v 0.4 2.1 -1.6
v 0.6 2.1 -1.6

# faces
f 7/7/1 2/7/1 1/7/1
f 8/1/1 3/1/1 2/1/1
f 8/7/1 2/7/1 7/7/1
f 9/7/1 5/7/1 4/7/1
f 10/1/1 6/1/1 5/1/1
f 10/7/1 5/7/1 9/7/1
f 11/1/1 3/1/1 8/1/1
f 12/1/1 3/1/1 11/1/1
f 13/1/1 6/1/1 10/1/1
f 14/1/1 6/1/1 13/1/1
f 17/2/1 16/2/1 15/2/1
f 18/2/1 16/2/1 17/2/1
f 28/6/1 20/6/1 19/6/1
f 29/1/1 21/1/1 20/1/1
f 29/6/1 20/6/1 28/6/1
f 29/1/1 22/1/1 21/1/1
f 30/1/1 22/1/1 29/1/1
f 31/1/1 22/1/1 30/1/1
f 32/1/1 25/1/1 24/1/1
f 32/1/1 24/1/1 23/1/1
f 33/1/1 25/1/1 32/1/1
f 34/1/1 27/1/1 26/1/1
f 35/5/1 30/5/1 29/5/1
f 35/5/1 29/5/1 28/5/1
f 36/5/1 30/5/1 35/5/1
f 37/1/1 33/1/1 32/1/1
f 37/5/1 30/5/1 36/5/1
f 37/1/1 31/1/1 30/1/1
f 37/1/1 34/1/1 33/1/1
f 37/1/1 32/1/1 31/1/1
f 38/7/1 36/7/1 35/7/1
f 39/1/1 37/1/1 36/1/1
f 39/7/1 36/7/1 38/7/1
f 40/1/1 39/1/1 38/1/1
f 41/1/1 34/1/1 37/1/1
f 41/1/1 39/1/1 40/1/1
f 41/1/1 37/1/1 39/1/1
f 42/1/1 27/1/1 34/1/1
f 42/1/1 34/1/1 41/1/1
f 50/7/1 44/7/1 43/7/1
f 51/1/1 45/1/1 44/1/1
f 51/7/1 44/7/1 50/7/1
f 52/1/1 45/1/1 51/1/1
f 53/1/1 47/1/1 46/1/1
f 54/1/1 47/1/1 53/1/1
f 55/1/1 49/1/1 48/1/1
f 56/1/1 49/1/1 55/1/1
f 59/1/1 57/1/1 56/1/1
f 60/1/1 57/1/1 59/1/1
f 61/1/1 59/1/1 58/1/1
f 62/1/1 59/1/1 61/1/1
f 65/1/1 64/1/1 63/1/1
f 67/1/1 65/1/1 63/1/1
f 67/1/1 66/1/1 65/1/1
f 68/1/1 66/1/1 67/1/1
f 69/1/1 66/1/1 68/1/1
f 71/1/1 70/1/1 69/1/1
f 71/1/1 69/1/1 68/1/1
f 72/1/1 70/1/1 71/1/1
f 74/1/1 70/1/1 72/1/1
f 76/1/1 74/1/1 73/1/1
f 77/1/1 70/1/1 74/1/1
f 77/1/1 74/1/1 76/1/1
f 78/1/1 70/1/1 77/1/1
f 80/7/1 76/7/1 75/7/1
f 81/1/1 77/1/1 76/1/1
f 81/7/1 76/7/1 80/7/1
f 82/1/1 77/1/1 81/1/1
f 83/7/1 80/7/1 79/7/1
f 83/7/1 81/7/1 80/7/1
f 84/7/1 81/7/1 83/7/1
f 87/2/1 86/2/1 85/2/1
f 88/2/1 86/2/1 87/2/1
f 91/7/1 90/7/1 89/7/1
f 92/7/1 90/7/1 91/7/1
f 93/7/2 94/7/2 95/7/2
f 95/7/2 94/7/2 96/7/2
f 97/2/2 98/2/2 99/2/2
f 99/2/2 98/2/2 100/2/2
f 101/1/2 102/1/2 103/1/2
f 101/1/2 103/1/2 105/1/2
f 103/1/2 104/1/2 105/1/2
f 105/1/2 104/1/2 106/1/2
f 106/1/2 104/1/2 107/1/2
f 107/1/2 108/1/2 109/1/2
f 106/1/2 107/1/2 109/1/2
f 109/1/2 108/1/2 110/1/2
f 110/1/2 108/1/2 112/1/2
f 111/1/2 112/1/2 114/1/2
f 112/1/2 108/1/2 115/1/2
f 114/1/2 112/1/2 115/1/2
f 115/1/2 108/1/2 116/1/2
f 113/7/2 114/7/2 118/7/2
f 114/1/2 115/1/2 119/1/2
f 118/7/2 114/7/2 119/7/2
f 119/1/2 115/1/2 120/1/2
f 117/7/2 118/7/2 121/7/2
f 118/7/2 119/7/2 121/7/2
f 121/7/2 119/7/2 122/7/2
f 123/7/2 124/7/2 130/7/2
f 124/1/2 125/1/2 131/1/2
f 130/7/2 124/7/2 131/7/2
f 131/1/2 125/1/2 132/1/2
f 126/1/2 127/1/2 133/1/2
f 133/1/2 127/1/2 134/1/2
f 128/1/2 129/1/2 135/1/2
f 135/1/2 129/1/2 136/1/2
f 136/1/2 137/1/2 139/1/2
f 139/1/2 137/1/2 140/1/2
f 138/1/2 139/1/2 141/1/2
f 141/1/2 139/1/2 142/1/2
f 143/6/2 144/6/2 152/6/2
f 144/1/2 145/1/2 153/1/2
f 152/6/2 144/6/2 153/6/2
f 145/1/2 146/1/2 153/1/2
f 153/1/2 146/1/2 154/1/2
f 154/1/2 146/1/2 155/1/2
f 148/1/2 149/1/2 156/1/2
f 147/1/2 148/1/2 156/1/2
f 156/1/2 149/1/2 157/1/2
f 150/1/2 151/1/2 158/1/2
f 153/5/2 154/5/2 159/5/2
f 152/5/2 153/5/2 159/5/2
f 159/5/2 154/5/2 160/5/2
f 156/1/2 157/1/2 161/1/2
f 160/5/2 154/5/2 161/5/2
f 154/1/2 155/1/2 161/1/2
f 157/1/2 158/1/2 161/1/2
f 155/1/2 156/1/2 161/1/2
f 159/7/2 160/7/2 162/7/2
f 160/1/2 161/1/2 163/1/2
f 162/7/2 160/7/2 163/7/2
f 162/1/2 163/1/2 164/1/2
f 161/1/2 158/1/2 165/1/2
f 164/1/2 163/1/2 165/1/2
f 163/1/2 161/1/2 165/1/2
f 158/1/2 151/1/2 166/1/2
f 165/1/2 158/1/2 166/1/2
f 167/7/2 168/7/2 173/7/2
f 168/1/2 169/1/2 174/1/2
f 173/7/2 168/7/2 174/7/2
f 170/7/2 171/7/2 175/7/2
f 171/1/2 172/1/2 176/1/2
f 175/7/2 171/7/2 176/7/2
f 174/1/2 169/1/2 177/1/2
f 177/1/2 169/1/2 178/1/2
f 176/1/2 172/1/2 179/1/2
f 179/1/2 172/1/2 180/1/2
f 181/2/2 182/2/2 183/2/2
f 183/2/2 182/2/2 184/2/2
f 191/2/3 186/2/3 185/2/3
f 193/6/3 188/6/3 187/6/3
f 194/5/3 189/5/3 188/5/3
f 194/6/3 188/6/3 193/6/3
f 195/7/3 190/7/3 189/7/3
f 196/7/3 190/7/3 195/7/3
f 197/1/3 191/1/3 190/1/3
f 197/2/3 186/2/3 191/2/3
f 198/2/3 186/2/3 197/2/3
f 199/7/3 193/7/3 192/7/3
f 200/5/3 194/5/3 193/5/3
f 200/7/3 193/7/3 199/7/3
f 201/5/3 189/5/3 194/5/3
f 201/5/3 194/5/3 200/5/3
f 202/7/3 195/7/3 189/7/3
f 202/5/3 189/5/3 201/5/3
f 203/8/3 196/8/3 195/8/3
f 203/7/3 195/7/3 202/7/3
f 204/7/3 190/7/3 196/7/3
f 204/8/3 196/8/3 203/8/3
f 205/1/3 197/1/3 190/1/3
f 205/7/3 190/7/3 204/7/3
f 205/1/3 198/1/3 197/1/3
f 206/1/3 198/1/3 205/1/3
f 207/2/3 186/2/3 198/2/3
f 207/1/3 198/1/3 206/1/3
f 208/2/3 186/2/3 207/2/3
f 209/1/3 200/1/3 199/1/3
f 209/5/3 201/5/3 200/5/3
f 210/8/3 202/8/3 201/8/3
f 210/5/3 201/5/3 209/5/3
f 211/7/3 203/7/3 202/7/3
f 211/8/3 202/8/3 210/8/3
f 211/7/3 204/7/3 203/7/3
f 211/7/3 205/7/3 204/7/3
f 212/7/3 205/7/3 211/7/3
f 213/2/3 206/2/3 205/2/3
f 213/7/3 205/7/3 212/7/3
f 214/4/3 210/4/3 209/4/3
f 214/1/3 209/1/3 199/1/3
f 214/4/3 211/4/3 210/4/3
f 215/4/3 211/4/3 214/4/3
f 216/5/3 212/5/3 211/5/3
f 216/4/3 211/4/3 215/4/3
f 217/3/3 213/3/3 212/3/3
f 217/5/3 212/5/3 216/5/3
f 218/2/3 206/2/3 213/2/3
f 218/3/3 213/3/3 217/3/3
f 219/1/3 214/1/3 199/1/3
f 220/5/3 215/5/3 214/5/3
f 220/1/3 214/1/3 219/1/3
f 221/8/3 216/8/3 215/8/3
f 221/5/3 215/5/3 220/5/3
f 222/7/3 217/7/3 216/7/3
f 222/8/3 216/8/3 221/8/3
f 222/7/3 218/7/3 217/7/3
f 223/7/3 218/7/3 222/7/3
f 224/7/3 218/7/3 223/7/3
f 225/2/3 206/2/3 218/2/3
f 225/7/3 218/7/3 224/7/3
f 226/1/3 207/1/3 206/1/3
f 226/2/3 206/2/3 225/2/3
f 227/1/3 207/1/3 226/1/3
f 229/7/3 220/7/3 219/7/3
f 230/5/3 221/5/3 220/5/3
f 230/7/3 220/7/3 229/7/3
f 230/5/3 222/5/3 221/5/3
f 231/5/3 222/5/3 230/5/3
f 232/8/3 224/8/3 223/8/3
f 232/7/3 223/7/3 222/7/3
f 233/7/3 225/7/3 224/7/3
f 233/8/3 224/8/3 232/8/3
f 234/1/3 227/1/3 226/1/3
f 234/1/3 226/1/3 225/1/3
f 235/2/3 228/2/3 227/2/3
f 235/1/3 227/1/3 234/1/3
f 236/6/3 231/6/3 230/6/3
f 237/5/3 222/5/3 231/5/3
f 237/6/3 231/6/3 236/6/3
f 238/7/3 232/7/3 222/7/3
f 238/5/3 222/5/3 237/5/3
f 238/7/3 233/7/3 232/7/3
f 239/1/3 234/1/3 225/1/3
f 239/7/3 233/7/3 238/7/3
f 239/7/3 225/7/3 233/7/3
f 240/2/3 235/2/3 234/2/3
f 240/1/3 234/1/3 239/1/3
f 241/2/3 235/2/3 240/2/3
f 242/2/3 228/2/3 235/2/3
f 242/2/3 235/2/3 241/2/3
f 245/7/3 244/7/3 243/7/3
f 246/7/3 244/7/3 245/7/3
f 247/1/3 246/1/3 245/1/3
f 248/1/3 246/1/3 247/1/3
f 251/1/3 250/1/3 249/1/3
f 252/1/3 250/1/3 251/1/3
f 253/7/3 252/7/3 251/7/3
f 254/7/3 252/7/3 253/7/3
f 257/1/3 256/1/3 255/1/3
f 258/1/3 256/1/3 257/1/3
f 261/1/3 260/1/3 259/1/3
f 262/1/3 260/1/3 261/1/3
f 265/7/3 264/7/3 263/7/3
f 266/7/3 264/7/3 265/7/3
f 269/7/3 268/7/3 267/7/3
f 270/7/3 268/7/3 269/7/3
f 274/1/3 272/1/3 271/1/3
f 275/1/3 272/1/3 274/1/3
f 276/1/3 274/1/3 273/1/3
f 277/1/3 274/1/3 276/1/3
f 280/1/3 279/1/3 278/1/3
f 281/1/3 279/1/3 280/1/3
f 283/1/3 282/1/3 281/1/3
f 284/1/3 282/1/3 283/1/3
f 287/7/3 286/7/3 285/7/3
f 288/7/3 286/7/3 287/7/3
f 291/7/3 290/7/3 289/7/3
f 292/7/3 290/7/3 291/7/3
f 297/1/3 294/1/3 293/1/3
f 298/1/3 294/1/3 297/1/3
f 299/1/3 296/1/3 295/1/3
f 300/1/3 296/1/3 299/1/3
f 303/1/3 302/1/3 301/1/3
f 304/1/3 302/1/3 303/1/3
f 305/2/4 306/2/4 307/2/4
f 307/2/4 306/2/4 308/2/4
f 308/2/4 306/2/4 309/2/4
f 309/2/4 306/2/4 310/2/4
f 310/2/4 306/2/4 311/2/4
f 312/2/4 313/2/4 315/2/4
f 314/2/4 315/2/4 316/2/4
f 316/2/4 315/2/4 317/2/4
f 315/2/4 313/2/4 318/2/4
f 317/2/4 315/2/4 318/2/4
f 319/1/4 320/1/4 321/1/4
f 321/1/4 320/1/4 322/1/4
f 319/1/4 321/1/4 323/1/4
f 323/1/4 321/1/4 324/1/4
f 325/1/4 326/1/4 327/1/4
f 325/1/4 327/1/4 329/1/4
f 327/1/4 328/1/4 329/1/4
f 329/1/4 328/1/4 330/1/4
f 331/1/4 332/1/4 333/1/4
f 333/1/4 332/1/4 334/1/4
f 331/1/4 333/1/4 335/1/4
f 335/1/4 333/1/4 336/1/4
f 337/1/4 338/1/4 339/1/4
f 337/1/4 339/1/4 341/1/4
f 339/1/4 340/1/4 341/1/4
f 341/1/4 340/1/4 342/1/4
f 343/1/4 344/1/4 346/1/4
f 346/1/4 344/1/4 347/1/4
f 345/1/4 346/1/4 349/1/4
f 349/1/4 346/1/4 350/1/4
f 347/1/4 348/1/4 351/1/4
f 351/1/4 348/1/4 352/1/4
f 350/1/4 351/1/4 353/1/4
f 353/1/4 351/1/4 354/1/4
f 355/1/4 356/1/4 357/1/4
f 357/1/4 356/1/4 358/1/4
f 355/1/4 357/1/4 359/1/4
f 358/1/4 356/1/4 360/1/4
f 355/1/4 359/1/4 361/1/4
f 359/1/4 360/1/4 361/1/4
f 360/1/4 356/1/4 362/1/4
f 361/1/4 360/1/4 362/1/4
f 363/1/4 364/1/4 367/1/4
f 367/1/4 364/1/4 368/1/4
f 365/7/4 366/7/4 369/7/4
f 369/7/4 366/7/4 370/7/4
f 371/1/4 372/1/4 375/1/4
f 375/1/4 372/1/4 376/1/4
f 373/1/4 374/1/4 377/1/4
f 377/1/4 374/1/4 378/1/4
f 379/1/4 380/1/4 381/1/4
f 381/1/4 380/1/4 382/1/4
f 387/7/5 384/7/5 383/7/5
f 388/1/5 385/1/5 384/1/5
f 388/7/5 384/7/5 387/7/5
f 389/7/5 386/7/5 385/7/5
f 389/1/5 385/1/5 388/1/5
f 390/7/5 386/7/5 389/7/5
f 393/1/5 388/1/5 387/1/5
f 393/1/5 389/1/5 388/1/5
f 393/1/5 390/1/5 389/1/5
f 394/1/5 390/1/5 393/1/5
f 397/7/5 392/7/5 391/7/5
f 398/1/5 394/1/5 393/1/5
f 398/7/5 392/7/5 397/7/5
f 398/1/5 393/1/5 392/1/5
f 398/1/5 395/1/5 394/1/5
f 399/7/5 396/7/5 395/7/5
f 399/1/5 395/1/5 398/1/5
f 400/7/5 396/7/5 399/7/5
f 401/1/5 398/1/5 397/1/5
f 401/1/5 399/1/5 398/1/5
f 401/1/5 400/1/5 399/1/5
f 402/1/5 400/1/5 401/1/5
f 403/1/5 400/1/5 402/1/5
f 404/1/5 400/1/5 403/1/5
f 409/7/5 406/7/5 405/7/5
f 410/7/5 406/7/5 409/7/5
f 411/1/5 403/1/5 402/1/5
f 412/1/5 403/1/5 411/1/5
f 413/7/5 408/7/5 407/7/5
f 414/7/5 408/7/5 413/7/5
f 415/1/5 410/1/5 409/1/5
f 415/1/5 412/1/5 411/1/5
f 415/1/5 414/1/5 413/1/5
f 415/1/5 413/1/5 412/1/5
f 415/1/5 411/1/5 410/1/5
f 416/1/5 414/1/5 415/1/5
f 417/1/5 414/1/5 416/1/5
f 418/1/5 414/1/5 417/1/5
f 419/1/5 417/1/5 416/1/5
f 420/1/5 417/1/5 419/1/5
f 425/6/5 422/6/5 421/6/5
f 426/6/5 422/6/5 425/6/5
f 427/6/5 424/6/5 423/6/5
f 428/6/5 424/6/5 427/6/5
f 429/1/5 426/1/5 425/1/5
f 430/1/5 426/1/5 429/1/5
f 431/1/5 428/1/5 427/1/5
f 432/1/5 428/1/5 431/1/5
f 437/1/5 434/1/5 433/1/5
f 438/1/5 436/1/5 435/1/5
f 439/1/5 434/1/5 437/1/5
f 440/1/5 434/1/5 439/1/5
f 441/1/5 438/1/5 435/1/5
f 442/1/5 438/1/5 441/1/5
f 447/1/5 444/1/5 443/1/5
f 448/1/5 444/1/5 447/1/5
f 449/1/5 446/1/5 445/1/5
f 450/1/5 446/1/5 449/1/5
f 451/1/5 449/1/5 448/1/5
f 452/1/5 449/1/5 451/1/5
f 455/1/5 454/1/5 453/1/5
f 456/1/5 454/1/5 455/1/5
f 459/1/5 458/1/5 457/1/5
f 460/1/5 458/1/5 459/1/5
f 463/1/5 462/1/5 461/1/5
f 464/1/5 462/1/5 463/1/5
f 469/2/5 466/2/5 465/2/5
f 470/2/5 466/2/5 469/2/5
f 471/2/5 468/2/5 467/2/5
f 472/2/5 468/2/5 471/2/5
f 475/1/5 474/1/5 473/1/5
f 476/1/5 474/1/5 475/1/5
f 479/7/5 478/7/5 477/7/5
f 480/7/5 478/7/5 479/7/5
f 483/7/5 482/7/5 481/7/5
f 484/7/5 482/7/5 483/7/5
f 485/7/6 486/7/6 489/7/6
f 489/7/6 486/7/6 490/7/6
f 487/7/6 488/7/6 491/7/6
f 491/7/6 488/7/6 492/7/6
f 493/7/6 494/7/6 497/7/6
f 497/7/6 494/7/6 498/7/6
f 495/7/6 496/7/6 499/7/6
f 499/7/6 496/7/6 500/7/6
f 501/1/6 502/1/6 505/1/6
f 505/1/6 502/1/6 506/1/6
f 503/1/6 504/1/6 507/1/6
f 507/1/6 504/1/6 508/1/6
f 509/1/6 510/1/6 513/1/6
f 513/1/6 510/1/6 514/1/6
f 511/1/6 512/1/6 515/1/6
f 515/1/6 512/1/6 516/1/6
f 517/1/6 518/1/6 519/1/6
f 519/1/6 518/1/6 520/1/6
f 521/1/6 522/1/6 523/1/6
f 523/1/6 522/1/6 524/1/6
f 525/1/6 526/1/6 529/1/6
f 529/1/6 526/1/6 530/1/6
f 527/1/6 528/1/6 531/1/6
f 531/1/6 528/1/6 532/1/6
f 530/1/6 531/1/6 533/1/6
f 533/1/6 531/1/6 534/1/6
f 535/1/6 536/1/6 538/1/6
f 538/1/6 536/1/6 539/1/6
f 537/1/6 538/1/6 541/1/6
f 539/1/6 540/1/6 541/1/6
f 538/1/6 539/1/6 541/1/6
f 541/1/6 540/1/6 542/1/6
f 543/2/6 544/2/6 547/2/6
f 547/2/6 544/2/6 548/2/6
f 545/2/6 546/2/6 549/2/6
f 549/2/6 546/2/6 550/2/6
f 551/1/6 552/1/6 553/1/6
f 553/1/6 552/1/6 554/1/6
f 555/1/6 556/1/6 557/1/6
f 557/1/6 556/1/6 558/1/6
f 559/7/6 560/7/6 561/7/6
f 561/7/6 560/7/6 562/7/6
